name ./resultDataOpenSim/trcMotMarkerGrf/sub09/grf-04-05.mot
datacolumns 19
datarows 30
range 1.00000000 1.11600000
endheader

                time	     ground_force_vx	     ground_force_vy	     ground_force_vz	     ground_force_px	     ground_force_py	     ground_force_pz	   l_ground_force_vx	   l_ground_force_vy	   l_ground_force_vz	   l_ground_force_px	   l_ground_force_py	   l_ground_force_pz	     ground_torque_x	     ground_torque_y	     ground_torque_z	   l_ground_torque_x	   l_ground_torque_y	   l_ground_torque_z	
          1.00000000	          0.00000000	          0.00000000	          0.00000000	          0.00000000	          0.00000000	          0.00000000	         12.69024218	        374.64060930	         16.87229082	          0.19978411	         -0.07500000	          0.01195153	          0.00000000	          0.00000000	          0.00000000	          0.00000000	         -2.69627277	          0.00000000	
          1.00400000	          0.00000000	          0.00000000	          0.00000000	          0.00000000	          0.00000000	          0.00000000	         16.01648320	        379.11348514	         15.76479751	          0.20076139	         -0.07500000	          0.01251669	          0.00000000	          0.00000000	          0.00000000	          0.00000000	         -3.03769611	          0.00000000	
          1.00800000	          0.00000000	          0.00000000	          0.00000000	          0.00000000	          0.00000000	          0.00000000	         19.33117034	        385.28025875	         14.35124165	          0.20165079	         -0.07500000	          0.01314527	          0.00000000	          0.00000000	          0.00000000	          0.00000000	         -3.40917282	          0.00000000	
          1.01200000	          0.00000000	          0.00000000	          0.00000000	          0.00000000	          0.00000000	          0.00000000	         22.65604955	        393.16840056	         12.70503473	          0.20235151	         -0.07500000	          0.01377282	          0.00000000	          0.00000000	          0.00000000	          0.00000000	         -3.80181977	          0.00000000	
          1.01600000	          0.00000000	          0.00000000	          0.00000000	          0.00000000	          0.00000000	          0.00000000	         26.01189799	        402.65789762	         10.93322471	          0.20279769	         -0.07500000	          0.01431452	          0.00000000	          0.00000000	          0.00000000	          0.00000000	         -4.20376573	          0.00000000	
          1.02000000	          0.00000000	          0.00000000	          0.00000000	          0.00000000	          0.00000000	          0.00000000	         29.37631874	        413.60178119	          9.14574563	          0.20297723	         -0.07500000	          0.01471932	          0.00000000	          0.00000000	          0.00000000	          0.00000000	         -4.60168714	          0.00000000	
          1.02400000	          0.00000000	          0.00000000	          0.00000000	          0.00000000	          0.00000000	          0.00000000	         32.68243222	        425.90229805	          7.42713025	          0.20295066	         -0.07500000	          0.01499161	          0.00000000	          0.00000000	          0.00000000	          0.00000000	         -4.98260304	          0.00000000	
          1.02800000	          0.00000000	          0.00000000	          0.00000000	          0.00000000	          0.00000000	          0.00000000	         35.85459093	        439.46233060	          5.82646272	          0.20282022	         -0.07500000	          0.01518235	          0.00000000	          0.00000000	          0.00000000	          0.00000000	         -5.33532223	          0.00000000	
          1.03200000	          0.00000000	          0.00000000	          0.00000000	          0.00000000	          0.00000000	          0.00000000	         38.84840567	        454.11834632	          4.37787705	          0.20272145	         -0.07500000	          0.01534749	          0.00000000	          0.00000000	          0.00000000	          0.00000000	         -5.65117247	          0.00000000	
          1.03600000	          0.00000000	          0.00000000	          0.00000000	          0.00000000	          0.00000000	          0.00000000	         41.66911816	        469.64366794	          3.13471962	          0.20277038	         -0.07500000	          0.01552392	          0.00000000	          0.00000000	          0.00000000	          0.00000000	         -5.92409282	          0.00000000	
          1.04000000	          0.00000000	          0.00000000	          0.00000000	          0.00000000	          0.00000000	          0.00000000	         44.36726401	        485.79141245	          2.17457708	          0.20299396	         -0.07500000	          0.01572038	          0.00000000	          0.00000000	          0.00000000	          0.00000000	         -6.15044486	          0.00000000	
          1.04400000	          0.00000000	          0.00000000	          0.00000000	          0.00000000	          0.00000000	          0.00000000	         47.02076538	        502.34423272	          1.56268811	          0.20333064	         -0.07500000	          0.01592252	          0.00000000	          0.00000000	          0.00000000	          0.00000000	         -6.32880506	          0.00000000	
          1.04800000	          0.00000000	          0.00000000	          0.00000000	          0.00000000	          0.00000000	          0.00000000	         49.71013777	        519.15137316	          1.32211659	          0.20367636	         -0.07500000	          0.01610003	          0.00000000	          0.00000000	          0.00000000	          0.00000000	         -6.45976531	          0.00000000	
          1.05200000	          0.00000000	          0.00000000	          0.00000000	          0.00000000	          0.00000000	          0.00000000	         52.50432513	        536.10896498	          1.44997712	          0.20394212	         -0.07500000	          0.01622544	          0.00000000	          0.00000000	          0.00000000	          0.00000000	         -6.54570359	          0.00000000	
          1.05600000	          0.00000000	          0.00000000	          0.00000000	          0.00000000	          0.00000000	          0.00000000	         55.47210837	        553.09528358	          1.94560576	          0.20409438	         -0.07500000	          0.01629772	          0.00000000	          0.00000000	          0.00000000	          0.00000000	         -6.59058030	          0.00000000	
          1.06000000	          0.00000000	          0.00000000	          0.00000000	          0.00000000	          0.00000000	          0.00000000	         58.69753925	        569.92881132	          2.80123447	          0.20414970	         -0.07500000	          0.01634270	          0.00000000	          0.00000000	          0.00000000	          0.00000000	         -6.59982213	          0.00000000	
          1.06400000	          0.00000000	          0.00000000	          0.00000000	          0.00000000	          0.00000000	          0.00000000	         62.27325511	        586.37309129	          3.97116201	          0.20414531	         -0.07500000	          0.01638662	          0.00000000	          0.00000000	          0.00000000	          0.00000000	         -6.58020344	          0.00000000	
          1.06800000	          0.00000000	          0.00000000	          0.00000000	          0.00000000	          0.00000000	          0.00000000	         66.27684121	        602.19083630	          5.36978462	          0.20412509	         -0.07500000	          0.01643745	          0.00000000	          0.00000000	          0.00000000	          0.00000000	         -6.53953779	          0.00000000	
          1.07200000	          0.00000000	          0.00000000	          0.00000000	          0.00000000	          0.00000000	          0.00000000	         70.74757314	        617.22608906	          6.89985509	          0.20412801	         -0.07500000	          0.01649251	          0.00000000	          0.00000000	          0.00000000	          0.00000000	         -6.48611658	          0.00000000	
          1.07600000	          0.00000000	          0.00000000	          0.00000000	          0.00000000	          0.00000000	          0.00000000	         75.67736627	        631.42545865	          8.46926060	          0.20417062	         -0.07500000	          0.01654555	          0.00000000	          0.00000000	          0.00000000	          0.00000000	         -6.42802860	          0.00000000	
          1.08000000	          0.00000000	          0.00000000	          0.00000000	          0.00000000	          0.00000000	          0.00000000	         81.02175066	        644.78807460	          9.98818608	          0.20425706	         -0.07500000	          0.01658582	          0.00000000	          0.00000000	          0.00000000	          0.00000000	         -6.37251694	          0.00000000	
          1.08400000	          0.00000000	          0.00000000	          0.00000000	          0.00000000	          0.00000000	          0.00000000	         86.72153736	        657.34006701	         11.37191828	          0.20437849	         -0.07500000	          0.01660425	          0.00000000	          0.00000000	          0.00000000	          0.00000000	         -6.32539707	          0.00000000	
          1.08800000	          0.00000000	          0.00000000	          0.00000000	          0.00000000	          0.00000000	          0.00000000	         92.70973338	        669.14291406	         12.55120600	          0.20450744	         -0.07500000	          0.01659591	          0.00000000	          0.00000000	          0.00000000	          0.00000000	         -6.29044701	          0.00000000	
          1.09200000	          0.00000000	          0.00000000	          0.00000000	          0.00000000	          0.00000000	          0.00000000	         98.89547070	        680.26637848	         13.48330710	          0.20460860	         -0.07500000	          0.01656116	          0.00000000	          0.00000000	          0.00000000	          0.00000000	         -6.26869806	          0.00000000	
          1.09600000	          0.00000000	          0.00000000	          0.00000000	          0.00000000	          0.00000000	          0.00000000	        105.15799363	        690.72892420	         14.16703255	          0.20465223	         -0.07500000	          0.01650082	          0.00000000	          0.00000000	          0.00000000	          0.00000000	         -6.25779858	          0.00000000	
          1.10000000	          0.00000000	          0.00000000	          0.00000000	          0.00000000	          0.00000000	          0.00000000	        111.36633107	        700.48556370	         14.64739624	          0.20465385	         -0.07500000	          0.01643352	          0.00000000	          0.00000000	          0.00000000	          0.00000000	         -6.25195298	          0.00000000	
          1.10400000	          0.00000000	          0.00000000	          0.00000000	          0.00000000	          0.00000000	          0.00000000	        117.39857858	        709.48981336	         14.99362272	          0.20468834	         -0.07500000	          0.01638597	          0.00000000	          0.00000000	          0.00000000	          0.00000000	         -6.24285943	          0.00000000	
          1.10800000	          0.00000000	          0.00000000	          0.00000000	          0.00000000	          0.00000000	          0.00000000	        123.14785184	        717.74859470	         15.26117960	          0.20481956	         -0.07500000	          0.01637833	          0.00000000	          0.00000000	          0.00000000	          0.00000000	         -6.22146515	          0.00000000	
          1.11200000	          0.00000000	          0.00000000	          0.00000000	          0.00000000	          0.00000000	          0.00000000	        128.52699648	        725.29688294	         15.45745745	          0.20506151	         -0.07500000	          0.01641979	          0.00000000	          0.00000000	          0.00000000	          0.00000000	         -6.17981458	          0.00000000	
          1.11600000	          0.00000000	          0.00000000	          0.00000000	          0.00000000	          0.00000000	          0.00000000	        133.47904623	        732.12617512	         15.52968816	          0.20538812	         -0.07500000	          0.01650549	          0.00000000	          0.00000000	          0.00000000	          0.00000000	         -6.11228378	          0.00000000	
